<?xml version="1.0" encoding="UTF-8"?><svg id="a" xmlns="http://www.w3.org/2000/svg" viewBox="0 0 500 500"><defs><style>.b{fill:#e3051a;}.c{fill:#1d1d1b;}.d{fill:#3aaa35;}</style></defs><path class="c" d="M294.16,284.7h-14.22l.69-2.55-.98-1.1-31.35,.55h-35.76c12.98-4.2,23.78-8.39,36.21-14.59,1.89-.91,2.91-2.01,3.15-2.92,.34-1.28-.28-2.37-1.34-3.83l-7.18-9.3-14.84,.91h-48.35l-23.94-.55-1.34,.91-4.3,16.05,1.03,.91,24.05-.55h35.94c-5.7,2.19-9.74,3.65-14.33,5.11h-8.21l-1.75,1.1-1.81,6.75h-40.32l-31.96-.55-1.57,1.1-4.55,16.97,.98,1.1,32.21-.36h40.32l-.78,2.92c-.93,3.47-2.27,4.38-6.15,4.56-3.2,.37-28.23,.69-31.26,.73,15.78,8.03,16.68,18.97,16.68,18.97,.34,1.46,.6,1.82,4.25,1.82,25.36,0,34.9-2.39,40.11-14.07,5.22-3.58,13.22-4.04,16.04-4.09h-14.28c10.06-4.34,22.07-4.99,26.82-5.07h-25.72l1.29-5.78h35.76l31.1,.36,1.57-1.1,2.5-9.31c4.29-1.34,8.75-1.57,10.71-1.6h-10.24c5.2-3.04,12.46-3.46,15.12-3.5Z"/><g><path class="b" d="M200.66,162.58c.36,.45,.73,.91,1.09,1.38-.36-.47-.72-.93-1.09-1.38Z"/><path class="b" d="M201.75,163.96s.07,.09,.11,.14c-.04-.05-.07-.09-.11-.14Z"/><polygon class="b" points="204.92 168.25 205.12 168.52 205.12 168.52 204.92 168.25"/><polygon class="b" points="193.44 182.05 193.44 182.05 193.45 182.05 193.44 182.05"/><polygon class="b" points="200.66 162.58 200.66 162.58 200.66 162.58 200.66 162.58"/><polygon class="b" points="204.72 167.97 204.92 168.25 204.72 167.97 204.72 167.97"/><path class="b" d="M185.96,216.87l3.03-11.31-1.08-.73-12.69,.36h-5.84l1.72-7.12h6.02l12.44,.55,1.52-.91,3.29-12.28,.66-3.37h-1.61l-12.15,.52h-6.57l1.04-4.56c7.14-1.46,19.06-4.38,28.74-7.84l.62-1.64h0l-.02,.06-4.44-6c-1.76-2.19-3.59-4.24-5.85-6.64h-1.82c-6.34,2.55-12.63,4.93-16.76,6.02l-8.71-.12c-10.74,.17-14.37,12.35-15.02,14.93l-1.95,8.17-9.94,43.24-3.29-.02c-12.19,0-15.35,16.11-15.35,16.11h-.08l-.67,2.52-6.24,19.89h27l5.52-20.62h110.38l-5.33,19.89h27.92l4.22-19.16,1.56-5.84,.96-3.05c4.3-1.34,8.77-1.58,10.73-1.61h-10.23l.1-.33c9.4-3.36,19.71-3.92,24.04-3.99h-22.79l.91-2.89-.98-1.09-14.46,.18,5.91-18.74c5.22-3.57,13.21-4.03,16.02-4.07h-14.72c9.96-4.16,21.66-4.8,26.34-4.87h-24.81l.42-1.31c3.53-.81,6.85-.97,8.46-1h-8.15l7.62-24.18,2.31-6.95c3.69-.9,7.23-1.08,8.91-1.11h-8.54l.17-.5c4.61-1.66,9.68-1.94,11.8-1.97h-11.15l1.23-3.7-1.03-.91-18.16,.37h-12.59l-12.49-.37-1.52,.91-4.11,15.32,1.03,.91,12.69-.36h7.48l-2.22,6.93h-5.11l-12.44-.55-1.57,1.1-3.91,14.59,1.03,.91,12.74-.55h4.38l-2.27,7.12h-4.01l-12.49-.36-1.47,.73-3.91,14.59,1.08,.73,12.69-.36h3.28l-2.47,7.85h-86.85l1.74-7.85h5.29l12.49,.36,1.47-.73,.39-1.46"/><polygon class="b" points="195.66 228.36 195.66 228.36 195.98 228.18 195.66 228.36"/></g><g><path class="c" d="M440.46,233.29l.82-.03s-.31,0-.82,.03Z"/><path class="c" d="M414.02,221.37l5.7-21.28c2.23-7.41,13.93-8.46,17.12-8.6l-16.27,.51h-22.77l-1.67,1.46-7.48,27.91h-6.75l-15.88-.32h0l-3.04-.06c-4.81,.3-7.79,2.74-9.63,5.32l-3.11-10.31-20.13,3.5h-.91l1.27-4.73c5.17-4.08,13.83-4.58,16.78-4.63h-15.54l2.51-9.38c3.06-.59,5.82-.72,7.25-.74h-7.05c.32-1.1,.87-2.05,1.57-2.88,7.14-1.61,13.83-1.94,17.1-1.99h-14.8c5.08-3.29,13.05-3.39,13.75-3.4l-16.5,.02h-18.68c-4.54,.5-6.03,4.5-6.37,5.64l-.08,.31h0l-5.84,21.78-17.13-.42c-5.22-.13-7.04,3.81-7.56,5.4l-4.48,16.73-6.12,1.57,29.18-.47h16.24c-38.44,44.58-76.17,71.8-94.98,83.22l37.46-.29,24.47-20.17-2.41,8.99h0c-14.61,52.65-30,53-30,53l20.93-.1v-.05h20.45l11.11-44.88,6.5-24.26c1.93,4.38,3.76,9.12,5.04,13.86l2.32,.18,14.95-12.22,2.48-1.92-.56,1.96-4.22,14.39h24.81v.02h10.58l-14.9,52.91h48.23s-21.05,0-17.78-12.84l4.37-17.18c4.99-4.81,14.56-5.38,17.7-5.43h-16.32l.45-1.78c10.69-7.12,26.82-8.05,32.52-8.14h-30.46l1.92-7.54h36.85l12.38-49.62,4.01-14.96,5.85-20.33h0c2.04-7.63,13.99-8.69,17.21-8.83l-16.82,.53-34.84,.53Zm-72.12,45.13l-1.56,5.52-5.15,18.13-.24,.83c-3.37-5.56-7.73-14.83-11.79-18.32l-2.9,.27c1.85-1.78-8.07,6.58-8.07,6.58l12.47-12.88c8.05-7.92,16.77-16.61,24.05-26.29l-2.26,9.12-4.56,17.03Zm27.55,26.57h-10.76l7.29-27.21s10.29,1.78,3.47,27.21Zm-3.35-27.67l6.18-23.05h10.76l-.56,2.1c-1.7,6.36-7.37,21.32-16.38,20.94Zm40.02,27.67h-11.31s5.03-25.64,18.04-25.11l-6.73,25.11Zm6.78-25.32s-10.3-3.76-4.51-25.39h11.31l-6.81,25.39Z"/><path class="c" d="M376.02,344.49h1.03s-.38-.01-1.03,0Z"/><path class="c" d="M392.68,334.56h2.1s-.78-.02-2.1,0Z"/><path class="c" d="M322.04,223.12h1.03s-.38-.01-1.03,0Z"/><path class="c" d="M217.73,259.73h1.03s-.38-.01-1.03,0Z"/><path class="c" d="M229.34,254.86h2.1s-.78-.02-2.1,0Z"/><path class="c" d="M138.77,364.01h1.03s-.38-.01-1.03,0Z"/><path class="c" d="M208.53,341.51h1.03s-.38-.01-1.03,0Z"/><path class="b" d="M294.16,284.7h-14.22l.69-2.55-.98-1.1-31.35,.55h-35.76c12.98-4.2,23.78-8.39,36.21-14.59,1.89-.91,2.91-2.01,3.15-2.92,.34-1.28-.28-2.37-1.34-3.83l-7.18-9.3-14.84,.91h-48.35l-23.94-.55-1.34,.91-4.3,16.05,1.03,.91,24.05-.55h35.94c-5.7,2.19-9.74,3.65-14.33,5.11h-8.21l-1.75,1.1-1.81,6.75h-40.32l-31.96-.55-1.57,1.1-4.55,16.97,.98,1.1,32.21-.36h40.32l-.78,2.92c-.93,3.47-2.27,4.38-6.15,4.56-3.2,.37-28.23,.69-31.26,.73,15.78,8.03,16.68,18.97,16.68,18.97,.34,1.46,.6,1.82,4.25,1.82,25.36,0,34.9-2.39,40.11-14.07,5.22-3.58,13.22-4.04,16.04-4.09h-14.28c10.06-4.34,22.07-4.99,26.82-5.07h-25.72l1.29-5.78h35.76l31.1,.36,1.57-1.1,2.5-9.31c4.29-1.34,8.75-1.57,10.71-1.6h-10.24c5.2-3.04,12.46-3.46,15.12-3.5Z"/><path class="c" d="M213.41,338.01h1.03s-.38-.01-1.03,0Z"/><path class="c" d="M219.21,290.66h1.03s-.38-.01-1.03,0Z"/><path class="c" d="M213.41,252.55h1.03s-.38-.01-1.03,0Z"/><path class="c" d="M151.32,358.93h2.1s-.78-.02-2.1,0Z"/><path class="c" d="M233.13,286.35h2.1s-.78-.02-2.1,0Z"/></g><g><path class="b" d="M222.12,357.08h.73s-.27,0-.73,0Z"/><path class="b" d="M219.34,338.06l-141.23-1.05,1.14-4.79c3.67-2.73,18.14-3.07,20.19-3.11h-17.22c7.11-3.07,50.75-3.53,54.11-3.59h-55.49l.35-1.47c3.56-1.69,8-1.93,9.72-1.96h-9.25l10.42-43.93c.72-.4,1.46-.76,2.21-1.1,2.93-.37,11.36-.48,12.84-.5h-11.65c6.92-2.73,21.8-3.16,25.02-3.22h-27.28l14.28-60.22c2.67-.67,25.09-.8,26.3-.82h-26.11l.25-1.04c3.44-1.44,9.68-1.67,11.29-1.69h-10.89l11.55-48.71c5.28-10.75,40.65-11.85,45.95-11.94h-43.12l.36-1.52c3.68-2.17,8.84-2.46,10.72-2.49h-9.11c3.63-3.02,26.62-3.39,28.74-3.42h-28.94l1.88-7.92-34.73-.51-56.58,230.17,175.78,1.58,1.33-4.59c.75-.74,1.57-1.41,2.45-2.03,3.02-.93,6.14-1.09,7.51-1.12h-5.76c7.5-4.26,29.4-4.83,33.19-4.9h-32.07c3.61-1.82,20.37-2.08,22.13-2.11h-23.83l3.06-10.46c1.64-.24,3.05-.3,3.85-.31h-3.75l.18-.55c.74-.5,2.83-.64,3.94-.66"/><path class="b" d="M136.74,141.49h.73s-.27,0-.73,0Z"/><path class="b" d="M133.8,144.91h.73s-.27,0-.73,0Z"/><path class="b" d="M90.9,322.1h.73s-.27,0-.73,0Z"/><path class="b" d="M113.95,212.3h.73s-.27,0-.73,0Z"/><path class="b" d="M117.04,209.57h.73s-.27,0-.73,0Z"/></g><polygon class="d" points="189.81 211.22 200.01 198.81 200.01 226.74 257.99 171.22 257.99 171.22 189.68 258.99 189.81 211.22"/><polygon class="d" points="207.66 168 216.12 157.71 216.11 180.86 264.17 134.84 264.17 134.84 207.55 207.59 207.66 168"/></svg>